<svg width="24" height="24" viewBox="0 0 24 24" fill="none" xmlns="http://www.w3.org/2000/svg">
<g clip-path="url(#clip0_294_9427)">
<path d="M23.5633 10.5L17.239 4.1325C15.5499 2.44681 13.2611 1.50008 10.8748 1.50008C8.48844 1.50008 6.1996 2.44681 4.51054 4.1325L4.5021 4.14093L3.21116 5.475C3.07743 5.61871 3.00538 5.80912 3.01047 6.00536C3.01557 6.20161 3.0974 6.38803 3.2384 6.52461C3.3794 6.66119 3.56833 6.73705 3.76463 6.7359C3.96094 6.73474 4.14896 6.65667 4.28835 6.51843L5.57554 5.18906C6.0934 4.6713 6.68437 4.23226 7.3296 3.88593L11.689 8.25L2.68897 17.25C2.54965 17.3893 2.43913 17.5547 2.36373 17.7367C2.28832 17.9187 2.24951 18.1138 2.24951 18.3108C2.24951 18.5078 2.28832 18.7029 2.36373 18.8849C2.43913 19.0669 2.54965 19.2323 2.68897 19.3716L4.62866 21.3112C4.76795 21.4506 4.93333 21.5611 5.11534 21.6365C5.29735 21.7119 5.49243 21.7507 5.68944 21.7507C5.88645 21.7507 6.08153 21.7119 6.26355 21.6365C6.44556 21.5611 6.61093 21.4506 6.75022 21.3112L15.7502 12.3112L17.0946 13.6556L18.7502 15.3094C18.8895 15.4487 19.0549 15.5592 19.2369 15.6346C19.4189 15.71 19.614 15.7488 19.811 15.7488C20.008 15.7488 20.2031 15.71 20.3851 15.6346C20.5671 15.5592 20.7325 15.4487 20.8718 15.3094L23.5615 12.6197C23.8425 12.3387 24.0006 11.9577 24.0009 11.5602C24.0013 11.1628 23.8439 10.7815 23.5633 10.5ZM5.68897 20.25L3.75022 18.3103L10.1252 11.9353L12.064 13.875L5.68897 20.25ZM15.2196 10.7175L13.1252 12.8128L11.1855 10.875L13.2808 8.77968C13.3506 8.71003 13.4059 8.62731 13.4436 8.53626C13.4814 8.44522 13.5008 8.34762 13.5008 8.24906C13.5008 8.1505 13.4814 8.0529 13.4436 7.96185C13.4059 7.8708 13.3506 7.78809 13.2808 7.71843L8.84272 3.28125C10.125 2.92012 11.4803 2.90703 12.7693 3.24332C14.0582 3.57961 15.2344 4.25315 16.1768 5.19468L20.3224 9.3675L17.6252 12.0619L16.2808 10.7175C16.2112 10.6478 16.1285 10.5924 16.0374 10.5547C15.9464 10.517 15.8488 10.4975 15.7502 10.4975C15.6517 10.4975 15.5541 10.517 15.463 10.5547C15.372 10.5924 15.2893 10.6478 15.2196 10.7175ZM19.8133 14.2481L18.6883 13.1231L21.3752 10.4297L22.5002 11.5547L19.8133 14.2481Z" fill="currentColor"/>
</g>
<defs>
<clipPath id="clip0_294_9427">
<rect width="24" height="24" fill="white"/>
</clipPath>
</defs>
</svg>
