<svg width="21" height="21" viewBox="0 0 21 21" fill="none" xmlns="http://www.w3.org/2000/svg">
<path d="M8.3264 3.32851L14.5804 9.57449C14.6386 9.6325 14.6847 9.7014 14.7162 9.77726C14.7477 9.85311 14.7639 9.93443 14.764 10.0166C14.7641 10.0987 14.7479 10.18 14.7165 10.2559C14.6851 10.3318 14.6391 10.4008 14.581 10.4589L8.335 16.7129C8.2178 16.8302 8.05878 16.8962 7.89293 16.8963C7.72707 16.8964 7.56797 16.8307 7.45062 16.7135C7.33327 16.5963 7.26728 16.4372 7.26718 16.2714C7.26707 16.1055 7.33285 15.9464 7.45005 15.8291L13.2549 10.0175L7.44259 4.21345C7.38448 4.15542 7.33838 4.08651 7.3069 4.01066C7.27543 3.93481 7.2592 3.8535 7.25915 3.77138C7.25909 3.68926 7.27522 3.60793 7.30659 3.53204C7.33797 3.45615 7.38399 3.38718 7.44202 3.32908C7.50005 3.27097 7.56896 3.22486 7.64481 3.19339C7.72066 3.16191 7.80197 3.14569 7.88409 3.14563C7.96621 3.14558 8.04754 3.1617 8.12343 3.19308C8.19932 3.22446 8.26829 3.27048 8.3264 3.32851Z" fill="currentColor"/>
</svg>
