<svg viewBox="0 0 17 16" fill="none" xmlns="http://www.w3.org/2000/svg">
<path d="M7 13.5C7 13.6978 6.94135 13.8911 6.83147 14.0556C6.72159 14.22 6.56541 14.3482 6.38268 14.4239C6.19996 14.4996 5.99889 14.5194 5.80491 14.4808C5.61093 14.4422 5.43275 14.347 5.29289 14.2071C5.15304 14.0673 5.0578 13.8891 5.01921 13.6951C4.98063 13.5011 5.00043 13.3 5.07612 13.1173C5.15181 12.9346 5.27998 12.7784 5.44443 12.6685C5.60888 12.5587 5.80222 12.5 6 12.5C6.26522 12.5 6.51957 12.6054 6.70711 12.7929C6.89464 12.9804 7 13.2348 7 13.5ZM12.5 12.5C12.3022 12.5 12.1089 12.5587 11.9444 12.6685C11.78 12.7784 11.6518 12.9346 11.5761 13.1173C11.5004 13.3 11.4806 13.5011 11.5192 13.6951C11.5578 13.8891 11.653 14.0673 11.7929 14.2071C11.9327 14.347 12.1109 14.4422 12.3049 14.4808C12.4989 14.5194 12.7 14.4996 12.8827 14.4239C13.0654 14.3482 13.2216 14.22 13.3315 14.0556C13.4414 13.8911 13.5 13.6978 13.5 13.5C13.5 13.2348 13.3946 12.9804 13.2071 12.7929C13.0196 12.6054 12.7652 12.5 12.5 12.5ZM15.4819 4.63375L13.8794 10.4013C13.7913 10.7163 13.6028 10.994 13.3426 11.1923C13.0824 11.3906 12.7646 11.4986 12.4375 11.5H6.26C5.93189 11.4999 5.61284 11.3924 5.3515 11.194C5.09016 10.9956 4.90087 10.7172 4.8125 10.4013L2.62 2.5H1.5C1.36739 2.5 1.24021 2.44732 1.14645 2.35355C1.05268 2.25979 1 2.13261 1 2C1 1.86739 1.05268 1.74021 1.14645 1.64645C1.24021 1.55268 1.36739 1.5 1.5 1.5H3C3.10931 1.49998 3.21562 1.53578 3.30265 1.60193C3.38968 1.66808 3.45263 1.76092 3.48187 1.86625L4.07437 4H15C15.0771 3.99999 15.1531 4.01779 15.2222 4.05203C15.2912 4.08627 15.3515 4.13601 15.3981 4.19737C15.4448 4.25873 15.4766 4.33004 15.4911 4.40574C15.5057 4.48144 15.5025 4.55948 15.4819 4.63375ZM14.3419 5H4.3525L5.77812 10.1338C5.80737 10.2391 5.87032 10.3319 5.95735 10.3981C6.04438 10.4642 6.15069 10.5 6.26 10.5H12.4375C12.5468 10.5 12.6531 10.4642 12.7402 10.3981C12.8272 10.3319 12.8901 10.2391 12.9194 10.1338L14.3419 5Z" fill="currentColor"/>
</svg>
