<svg viewBox="0 0 21 20" fill="none" xmlns="http://www.w3.org/2000/svg">
<path d="M6.75 5C6.75 4.83424 6.81585 4.67527 6.93306 4.55806C7.05027 4.44085 7.20924 4.375 7.375 4.375H17.375C17.5408 4.375 17.6997 4.44085 17.8169 4.55806C17.9342 4.67527 18 4.83424 18 5C18 5.16576 17.9342 5.32473 17.8169 5.44194C17.6997 5.55915 17.5408 5.625 17.375 5.625H7.375C7.20924 5.625 7.05027 5.55915 6.93306 5.44194C6.81585 5.32473 6.75 5.16576 6.75 5ZM17.375 9.375H7.375C7.20924 9.375 7.05027 9.44085 6.93306 9.55806C6.81585 9.67527 6.75 9.83424 6.75 10C6.75 10.1658 6.81585 10.3247 6.93306 10.4419C7.05027 10.5592 7.20924 10.625 7.375 10.625H17.375C17.5408 10.625 17.6997 10.5592 17.8169 10.4419C17.9342 10.3247 18 10.1658 18 10C18 9.83424 17.9342 9.67527 17.8169 9.55806C17.6997 9.44085 17.5408 9.375 17.375 9.375ZM17.375 14.375H7.375C7.20924 14.375 7.05027 14.4408 6.93306 14.5581C6.81585 14.6753 6.75 14.8342 6.75 15C6.75 15.1658 6.81585 15.3247 6.93306 15.4419C7.05027 15.5592 7.20924 15.625 7.375 15.625H17.375C17.5408 15.625 17.6997 15.5592 17.8169 15.4419C17.9342 15.3247 18 15.1658 18 15C18 14.8342 17.9342 14.6753 17.8169 14.5581C17.6997 14.4408 17.5408 14.375 17.375 14.375ZM3.9375 4.0625C3.75208 4.0625 3.57082 4.11748 3.41665 4.2205C3.26248 4.32351 3.14232 4.46993 3.07136 4.64123C3.00041 4.81254 2.98184 5.00104 3.01801 5.1829C3.05419 5.36475 3.14348 5.5318 3.27459 5.66291C3.4057 5.79402 3.57275 5.88331 3.7546 5.91949C3.93646 5.95566 4.12496 5.93709 4.29627 5.86614C4.46757 5.79518 4.61399 5.67502 4.717 5.52085C4.82002 5.36668 4.875 5.18542 4.875 5C4.875 4.75136 4.77623 4.5129 4.60041 4.33709C4.4246 4.16127 4.18614 4.0625 3.9375 4.0625ZM3.9375 9.0625C3.75208 9.0625 3.57082 9.11748 3.41665 9.2205C3.26248 9.32351 3.14232 9.46993 3.07136 9.64123C3.00041 9.81254 2.98184 10.001 3.01801 10.1829C3.05419 10.3648 3.14348 10.5318 3.27459 10.6629C3.4057 10.794 3.57275 10.8833 3.7546 10.9195C3.93646 10.9557 4.12496 10.9371 4.29627 10.8661C4.46757 10.7952 4.61399 10.675 4.717 10.5208C4.82002 10.3667 4.875 10.1854 4.875 10C4.875 9.75136 4.77623 9.5129 4.60041 9.33709C4.4246 9.16127 4.18614 9.0625 3.9375 9.0625ZM3.9375 14.0625C3.75208 14.0625 3.57082 14.1175 3.41665 14.2205C3.26248 14.3235 3.14232 14.4699 3.07136 14.6412C3.00041 14.8125 2.98184 15.001 3.01801 15.1829C3.05419 15.3648 3.14348 15.5318 3.27459 15.6629C3.4057 15.794 3.57275 15.8833 3.7546 15.9195C3.93646 15.9557 4.12496 15.9371 4.29627 15.8661C4.46757 15.7952 4.61399 15.675 4.717 15.5208C4.82002 15.3667 4.875 15.1854 4.875 15C4.875 14.7514 4.77623 14.5129 4.60041 14.3371C4.4246 14.1613 4.18614 14.0625 3.9375 14.0625Z" fill="currentColor"/>
</svg>
