<svg width="20" height="20" viewBox="0 0 20 20" fill="none" xmlns="http://www.w3.org/2000/svg">
<path d="M16.692 7.94218L10.442 14.1922C10.384 14.2503 10.3151 14.2964 10.2392 14.3278C10.1633 14.3593 10.082 14.3755 9.99986 14.3755C9.91772 14.3755 9.8364 14.3593 9.76052 14.3278C9.68465 14.2964 9.61572 14.2503 9.55767 14.1922L3.30767 7.94218C3.1904 7.82491 3.12451 7.66585 3.12451 7.5C3.12451 7.33414 3.1904 7.17508 3.30767 7.05781C3.42495 6.94053 3.58401 6.87465 3.74986 6.87465C3.91571 6.87465 4.07477 6.94053 4.19205 7.05781L9.99986 12.8664L15.8077 7.05781C15.8657 6.99974 15.9347 6.95368 16.0105 6.92225C16.0864 6.89082 16.1677 6.87465 16.2499 6.87465C16.332 6.87465 16.4133 6.89082 16.4892 6.92225C16.565 6.95368 16.634 6.99974 16.692 7.05781C16.7501 7.11588 16.7962 7.18482 16.8276 7.26069C16.859 7.33656 16.8752 7.41787 16.8752 7.5C16.8752 7.58212 16.859 7.66344 16.8276 7.73931C16.7962 7.81518 16.7501 7.88412 16.692 7.94218Z" fill="currentColor"/>
</svg>
